<svg xmlns="http://www.w3.org/2000/svg" xmlns:xlink="http://www.w3.org/1999/xlink" id="Layer_1" x="0px" y="0px" viewBox="0 0 288 142" style="enable-background:new 0 0 288 142;" xml:space="preserve"><style type="text/css">	.st0{fill:#808080;}	.st1{fill:#909090;}	.st2{fill:#FFFFFF;}	.st3{fill:#585858;}	.st4{fill:none;stroke:#0072BB;stroke-width:0.15;}</style><path class="st0" d="M34.5,121.1l-0.9-4.3h-3.4l-0.7,4.3h-2.2l3-15.9h3.1l3.2,15.9H34.5z M31.9,106.6c-0.5,2.8-0.9,5.6-1.4,8.4h2.9 C32.8,112.3,32.2,109.5,31.9,106.6"></path><path class="st0" d="M43.6,121.1V112c0-0.8-0.3-1.5-1.2-1.5c-0.8,0-1.5,0.6-2,1.1v9.5h-2v-12.3h1.9l0.1,1.1c0.7-0.7,1.6-1.4,2.6-1.4 c1.9,0,2.7,1.1,2.7,3v9.5h-2.1V121.1z"></path><path class="st0" d="M50.4,120.5c0.6,0,1-0.3,1.4-0.8c0.2-0.3,0.5-1,1-2l5.3-13h0.7l5.3,12.5c0.6,1.4,1,2.3,1.3,2.7 c0.3,0.4,0.7,0.6,1.3,0.6v0.6H59v-0.6c0.8,0,1.3-0.1,1.5-0.2s0.4-0.4,0.4-0.8c0-0.2-0.1-0.5-0.2-0.8c-0.1-0.2-0.2-0.5-0.3-0.8 l-0.6-1.4h-5.3c-0.3,0.9-0.6,1.6-0.7,1.8c-0.2,0.6-0.3,1.1-0.3,1.3c0,0.3,0.2,0.6,0.7,0.7c0.3,0.1,0.7,0.1,1.2,0.1v0.6h-4.9v-0.5 H50.4z M59.3,115.5L57,110h-0.2l-2.1,5.5H59.3z"></path><path class="st0" d="M66.6,120.5c0.4-0.1,0.8-0.2,1-0.4c0.2-0.2,0.3-0.5,0.3-1.1v-7c0-0.5-0.1-0.8-0.2-1c-0.2-0.2-0.5-0.3-1-0.4V110 h4.5v1.7c0.4-0.6,0.9-1,1.4-1.4c0.6-0.4,1.2-0.6,1.9-0.6c1,0,1.8,0.3,2.4,0.8s0.8,1.5,0.8,2.8v5.7c0,0.5,0.1,0.9,0.3,1 c0.2,0.2,0.5,0.3,0.9,0.3v0.6h-5.6v-0.6c0.4-0.1,0.7-0.2,0.9-0.3c0.2-0.2,0.2-0.5,0.2-1v-5.8c0-0.5-0.1-1-0.2-1.2 c-0.2-0.5-0.6-0.7-1.1-0.7c-0.4,0-0.8,0.1-1.1,0.4c-0.3,0.3-0.6,0.6-0.8,0.9v6.4c0,0.5,0.1,0.8,0.2,1c0.2,0.1,0.4,0.3,0.9,0.3v0.6 h-5.7L66.6,120.5L66.6,120.5z"></path><path class="st0" d="M79.8,111.2v-0.7c0.2-0.2,0.5-0.4,0.8-0.7c0.4-0.4,0.8-0.8,1.2-1.2c0.7-0.8,1.4-1.6,2-2.5h0.6v4h2.3v1h-2.3v7.2 c0,0.3,0,0.6,0.2,0.8c0.2,0.3,0.4,0.5,0.8,0.5c0.3,0,0.6-0.1,0.8-0.3c0.2-0.2,0.4-0.5,0.6-0.9l0.6,0.3c-0.3,0.7-0.6,1.2-1,1.6 c-0.7,0.7-1.5,1.1-2.5,1.1c-0.6,0-1-0.1-1.5-0.3c-0.8-0.4-1.2-1.1-1.2-2.2v-7.7C81.2,111.2,79.8,111.2,79.8,111.2z"></path><path class="st0" d="M87.7,120.5c0.4-0.1,0.8-0.2,1-0.4c0.2-0.2,0.3-0.5,0.3-1.1v-12c0-0.5-0.1-0.8-0.3-1c-0.2-0.2-0.5-0.3-1-0.4 V105h4.6v6.7c0.5-0.6,1-1,1.5-1.4c0.5-0.3,1.1-0.5,1.8-0.5c0.9,0,1.7,0.3,2.3,0.8c0.6,0.5,0.9,1.4,0.9,2.7v5.7 c0,0.5,0.1,0.9,0.3,1.1c0.2,0.2,0.5,0.3,0.9,0.4v0.6h-5.6v-0.6c0.4-0.1,0.7-0.2,0.9-0.3c0.2-0.2,0.2-0.5,0.2-1v-5.8 c0-0.5-0.1-1-0.2-1.2c-0.2-0.5-0.6-0.7-1.1-0.7c-0.4,0-0.8,0.2-1.3,0.6c-0.4,0.4-0.7,0.6-0.7,0.8v6.4c0,0.5,0.1,0.8,0.2,1 c0.2,0.1,0.4,0.3,0.9,0.3v0.6h-5.7L87.7,120.5L87.7,120.5z"></path><path class="st0" d="M102.5,111.4c1-1,2.1-1.5,3.5-1.5c0.8,0,1.5,0.2,2.2,0.6s1.2,1,1.6,1.7c0.3,0.6,0.5,1.3,0.6,2.1 c0.1,0.4,0.1,0.7,0.1,0.9h-6.1c0.1,1,0.2,1.8,0.5,2.5c0.5,1.3,1.3,2,2.5,2c0.6,0,1.1-0.2,1.6-0.5c0.3-0.2,0.7-0.6,1.1-1.1l0.5,0.3 c-0.7,1.2-1.6,2-2.6,2.5c-0.6,0.3-1.4,0.5-2.2,0.5c-1.2,0-2.3-0.5-3.3-1.4s-1.5-2.4-1.5-4.4C101.1,113.8,101.6,112.4,102.5,111.4  M107.6,114.4c0-1.4-0.1-2.4-0.3-2.9c-0.2-0.6-0.6-0.8-1.2-0.8s-1,0.3-1.3,1c-0.2,0.6-0.4,1.6-0.4,2.8L107.6,114.4L107.6,114.4z"></path><path class="st0" d="M111.5,120.5c0.4-0.1,0.7-0.2,0.9-0.3c0.3-0.2,0.4-0.6,0.4-1.2v-7c0-0.5-0.1-0.8-0.3-1c-0.2-0.2-0.5-0.3-1-0.4 V110h4.5v1.7c0.4-0.5,0.8-0.9,1.1-1.2c0.7-0.5,1.5-0.8,2.3-0.8c1,0,1.7,0.2,2.2,0.7c0.3,0.3,0.6,0.7,0.8,1.3h0.2 c0.5-0.6,0.9-1,1.3-1.2c0.7-0.5,1.4-0.7,2.1-0.7c0.8,0,1.6,0.3,2.2,0.8c0.6,0.5,1,1.4,1,2.5v6c0,0.6,0.1,0.9,0.3,1.1 c0.2,0.1,0.5,0.2,0.9,0.3v0.6h-5.6v-0.6c0.4-0.1,0.7-0.2,0.9-0.3c0.2-0.2,0.3-0.5,0.3-1v-5.8c0-0.6-0.1-1.1-0.3-1.4 c-0.2-0.3-0.5-0.5-1-0.5c-0.4,0-0.8,0.2-1.3,0.6s-0.7,0.6-0.7,0.8v6.4c0,0.5,0.1,0.8,0.2,1c0.2,0.1,0.4,0.3,0.9,0.3v0.6h-5.6v-0.6 c0.4-0.1,0.7-0.2,0.9-0.3c0.2-0.2,0.3-0.5,0.3-1v-5.8c0-0.6-0.1-1.1-0.3-1.4c-0.2-0.3-0.5-0.5-1.1-0.5c-0.5,0-0.9,0.2-1.4,0.6 c-0.4,0.4-0.6,0.6-0.6,0.7v6.4c0,0.5,0.1,0.8,0.2,1c0.1,0.1,0.4,0.3,0.9,0.3v0.6h-5.7L111.5,120.5L111.5,120.5z"></path><path class="st0" d="M140.5,121.3c-2.8,0-4-1.5-4-4.2v-7.8c0-2.6,1.4-4.3,4.1-4.3c2.4,0,4,1.2,4,3.7v1.8h-2v-1c0-1.5-0.2-2.7-2-2.7 c-1.5,0-2,0.9-2,2.2v7.8c0,1.4,0.4,2.6,2,2.6c2.4,0,2.1-2.2,2-3.9h2.1v1.7C144.8,120,143.3,121.3,140.5,121.3"></path><path class="st0" d="M150.3,121.3c-2.4,0-3.8-1.3-3.8-3.7v-5.5c0-2.3,1.5-3.6,3.8-3.6c2.4,0,3.8,1.2,3.8,3.6v5.5 C154.1,120,152.6,121.3,150.3,121.3 M152.1,112.2c0-1.1-0.7-1.9-1.8-1.9s-1.8,0.7-1.8,1.9v5.5c0,1.1,0.7,1.8,1.8,1.8 s1.8-0.7,1.8-1.8V112.2z"></path><path class="st0" d="M165.9,121.1v-8.9c0-0.8-0.2-1.6-1.2-1.6c-0.8,0-1.4,0.6-1.8,1.1v9.4h-2V112c0-0.9-0.4-1.4-1.3-1.4 c-0.7,0-1.3,0.4-1.7,1v9.6h-2v-12.3h1.8l0.1,1.1c0.7-0.7,1.5-1.3,2.6-1.3s1.9,0.5,2.3,1.5c0.6-1,1.6-1.5,2.7-1.5 c1.9,0,2.5,1.4,2.5,3.1v9.4L165.9,121.1L165.9,121.1z"></path><path class="st0" d="M175.1,121.3c-1.1,0-2-0.5-2.8-1.2v5.7h-2v-17h1.9v1c0.8-0.7,1.8-1.2,2.8-1.2c1.9,0,2.8,1.5,2.8,3.3v5.9 C177.9,119.5,177.1,121.3,175.1,121.3 M175.9,112.3c0-0.9-0.4-1.8-1.5-1.8c-0.8,0-1.5,0.4-2.1,1v7.1c0.5,0.5,1.3,1,2.1,1 c1.3,0,1.5-0.9,1.5-2V112.3z"></path><path class="st0" d="M185.1,121.1v-1c-0.7,0.7-1.6,1.2-2.6,1.2c-1.9,0-3-1.2-3-3v-0.7c0-3.1,3.1-3.8,5.5-4.1v-1.6 c0-1-0.5-1.7-1.6-1.7c-1.5,0-1.7,1-1.7,2.2h-1.9V112c0-2.4,1.4-3.4,3.7-3.4c2.2,0,3.5,1,3.5,3.2v9.3H185.1z M184.9,114.9 c-1.5,0.2-3.5,0.6-3.5,2.6v0.5c0,1,0.5,1.6,1.5,1.6c0.8,0,1.5-0.5,2-1V114.9z"></path><path class="st0" d="M194.5,121.1V112c0-0.8-0.3-1.5-1.2-1.5c-0.8,0-1.5,0.6-2,1.1v9.5h-2v-12.3h1.9l0.1,1.1 c0.7-0.7,1.6-1.4,2.6-1.4c1.9,0,2.7,1.1,2.7,3v9.5h-2.1V121.1z"></path><path class="st0" d="M202.5,122.5c-0.5,2.2-1.3,3.4-3.7,3.4c-0.4,0-0.7,0-1.1-0.1v-1.6c0.3,0,0.6,0.1,0.9,0.1c1.3,0,1.6-0.8,1.9-1.9 l0.4-1.6l-3.2-12h2.1c0.7,3.3,1.5,6.6,2.1,9.9c0.5-3.3,1.4-6.6,2.1-9.9h2L202.5,122.5z"></path><polygon class="st1" points="26.1,89.7 26.1,93.8 261.7,93.8 263,89.7 "></polygon><path class="st2" d="M216.9,38.1c0,6.5-5.3,11.7-11.7,11.7c-6.5,0-11.7-5.3-11.7-11.7c0-6.5,5.3-11.7,11.7-11.7 C211.6,26.4,216.9,31.6,216.9,38.1"></path><path class="st2" d="M234.2,20.6c10.7,4,19.6,5.2,26.4,0c4.7,16.4-7,36-12.9,36c-5.5,0.1-19.5-20.2-14.2-34.4 C234.3,20,234.2,20.6,234.2,20.6"></path><path class="st3" d="M106.8,64.8c0,0.3-1.9,10.9-2,11.2h2.8c2.7,0,4.4-1.5,4.4-3.8c0-1.1-0.6-1.8-1.6-2.1L110,70l0.5-0.2 c1.4-0.5,2-1.3,2-2.6c0-1.5-1.3-2.4-3.5-2.4H106.8z M107.4,69.4l0.6-3.5h1c1.7,0,2.1,0.9,2.1,1.6c0,0.9-0.5,2-2.7,2L107.4,69.4 L107.4,69.4z M106.4,74.8l0.7-4.2h1.2c1.6,0,2.3,0.6,2.3,1.8c0,1.7-1,2.7-3,2.7h-1.2V74.8z"></path><polygon class="st3" points="117.4,76.1 112.9,76.1 114.4,67.3 115.7,67.3 114.3,75 117.6,75 "></polygon><path class="st3" d="M125.5,72.6c-0.4,2.4-1.8,3.7-4,3.7c-1.7,0-2.7-1.1-2.7-2.9c0-0.3,0-0.7,0.1-1.1l0.9-5.1h1.2l-0.9,5.2 c-0.1,0.3-0.1,0.6-0.1,0.9c0,1.2,0.6,1.7,1.7,1.7c1.4,0,2.2-0.9,2.5-2.7l0.9-5.2h1.2L125.5,72.6z"></path><polygon class="st3" points="132.8,68.4 129.5,68.4 129,70.9 131.2,70.9 131,72 128.9,72 128.3,75 131.6,75 131.4,76.1 126.9,76.1  128.4,67.3 133,67.3 "></polygon><path class="st3" d="M136.7,65.8c-1.9,1.4-3,3.6-3,5.9c0,2.7,1.7,4.6,4.1,4.6c1.3,0,2.3-0.3,3.1-0.9c-0.1,0-0.2-0.9-0.2-1.3 c-0.9,0.6-1.8,0.9-2.8,0.9c-1.7,0-2.8-1.3-2.8-3.3c0-3.2,2.1-5.7,4.6-5.7c0.7,0,1.4,0.3,2.1,0.7c0.1-0.2,0.5-1.1,0.6-1.3 c-0.8-0.5-1.7-0.8-2.6-0.8C138.9,64.6,137.8,65,136.7,65.8"></path><path class="st3" d="M149.4,69.5c0,1.1-0.6,1.8-1.7,2.2l0,0c0.7,0.3,1,0.8,1,1.6c0,0.3,0,0.6-0.1,0.9l-0.4,2h-1.3 c0.3-1.4,0.4-2.4,0.4-2.9c0-0.7-0.5-1.1-1.6-1.1h-1l-0.7,3.9h-1.3l1.6-8.8h1.8C148.3,67.3,149.4,68.1,149.4,69.5 M148.1,69.5 c0-0.8-0.6-1.1-1.9-1.1h-0.7l-0.5,2.8h0.8C147.3,71.1,148.1,70.6,148.1,69.5"></path><path class="st3" d="M157.6,74.1c-1,1.4-2.5,2.2-3.9,2.2c-1.9,0-3.3-1.6-3.3-3.9c0-1.1,0.3-2.1,0.9-3c0.9-1.4,2.4-2.3,4-2.3 c0.8,0,1.5,0.3,2,0.7c0.9,0.7,1.4,1.9,1.4,3.1C158.5,72.2,158.2,73.2,157.6,74.1 M155,68.4c-0.8,0-1.7,0.5-2.3,1.1 c-0.8,0.9-1.1,1.8-1.1,2.9c0,1.6,0.9,2.7,2.1,2.7c0.8,0,1.7-0.5,2.3-1.2c0.8-0.9,1.1-1.9,1.1-3C157.2,69.5,156.3,68.4,155,68.4"></path><path class="st3" d="M164.1,69.2c-0.5-0.5-1.1-0.8-1.6-0.8c-0.8,0-1.4,0.5-1.4,1.3c0,0.6,0.3,0.8,0.9,1.1l0.7,0.4 c1,0.6,1.5,1.3,1.5,2.3c0,1.7-1.3,2.9-3.1,2.9c-1.1,0-2-0.5-2.4-1.4l1.1-0.8c0.3,0.7,0.9,1,1.6,1c0.9,0,1.5-0.6,1.5-1.6 c0-0.5-0.2-0.9-0.8-1.2l-0.7-0.4c-1.1-0.6-1.5-1.2-1.5-2.2c0-1.5,1.2-2.6,2.9-2.6c0.8,0,1.4,0.2,2,0.8L164.1,69.2z"></path><path class="st3" d="M170.4,69.2c-0.5-0.5-1.1-0.8-1.6-0.8c-0.8,0-1.4,0.5-1.4,1.3c0,0.6,0.3,0.8,0.9,1.1l0.7,0.4 c1,0.6,1.5,1.3,1.5,2.3c0,1.7-1.3,2.9-3.1,2.9c-1.1,0-1.9-0.5-2.4-1.4l1.1-0.8c0.3,0.7,0.9,1,1.6,1c0.9,0,1.5-0.6,1.5-1.6 c0-0.5-0.3-0.9-0.8-1.2l-0.7-0.4c-1.1-0.6-1.5-1.2-1.5-2.2c0-1.5,1.2-2.6,2.9-2.6c0.8,0,1.4,0.2,2,0.8L170.4,69.2z"></path><path class="st3" d="M180.1,64.8c0,0.3-1.9,10.9-2,11.2h2.8c2.7,0,4.4-1.5,4.4-3.8c0-1.1-0.6-1.8-1.6-2.1l-0.5-0.1l0.5-0.2 c1.4-0.5,2-1.3,2-2.6c0-1.5-1.3-2.4-3.5-2.4H180.1z M180.6,69.4l0.6-3.5h1c1.7,0,2.1,0.9,2.1,1.6c0,0.9-0.5,2-2.7,2L180.6,69.4 L180.6,69.4z M179.7,74.8l0.7-4.2h1.2c1.5,0,2.3,0.6,2.3,1.8c0,1.7-1,2.7-3,2.7h-1.2V74.8z"></path><polygon class="st3" points="191,76.1 186.5,76.1 188,67.3 189.3,67.3 188,75 191.2,75 "></polygon><path class="st3" d="M199.1,72.6c-0.4,2.4-1.8,3.7-4,3.7c-1.7,0-2.7-1.1-2.7-2.9c0-0.3,0-0.7,0.1-1.1l0.9-5.1h1.3l-0.9,5.2 c-0.1,0.3-0.1,0.6-0.1,0.9c0,1.2,0.6,1.7,1.7,1.7c1.4,0,2.2-0.9,2.5-2.7l0.9-5.2h1.3L199.1,72.6z"></path><polygon class="st3" points="206.4,68.4 203.1,68.4 202.7,70.9 204.9,70.9 204.7,72 202.5,72 202,75 205.2,75 205.1,76.1  200.5,76.1 202.1,67.3 206.6,67.3 "></polygon><path class="st3" d="M209,67.8c0,1.3,0.6,2.1,1.9,2.8l0.9,0.5c0.7,0.4,1.1,1,1.1,1.7c0,1.4-0.8,2.3-2.1,2.3c-0.9,0-1.7-0.5-2.1-1.3 c-0.2,0.1-0.9,0.7-1.1,0.9c0.6,1.1,1.5,1.7,2.9,1.7c2.3,0,3.9-1.5,3.9-3.7c0-1.2-0.6-2.2-1.9-2.9l-0.9-0.5c-0.7-0.4-1.2-0.7-1.2-1.5 c0-1.1,0.8-1.8,1.9-1.8c0.7,0,1.4,0.3,2.1,0.9c0.1-0.3,0.7-1.4,0.7-1.4c-0.6-0.5-1.4-0.8-2.4-0.8C210.5,64.6,209,66,209,67.8"></path><polygon class="st3" points="221.9,76.1 220.7,76.1 221.4,72 217.8,72 217.1,76.1 215.8,76.1 217.4,67.3 218.6,67.3 218,70.9  221.6,70.9 222.2,67.3 223.5,67.3 "></polygon><polygon class="st3" points="225.8,76.1 224.5,76.1 226,67.3 227.4,67.3 "></polygon><polygon class="st3" points="234.1,68.4 230.8,68.4 230.4,70.9 232.6,70.9 232.4,72 230.2,72 229.7,75 233,75 232.8,76.1  228.2,76.1 229.8,67.3 234.3,67.3 "></polygon><polygon class="st3" points="239,76.1 234.5,76.1 236,67.3 237.3,67.3 236,75 239.2,75 "></polygon><path class="st3" d="M247.5,71.2c0,3-2,5-5.1,5h-2.1l1.6-8.8h1.7C246,67.3,247.5,68.8,247.5,71.2 M246.1,71c0-1.6-1-2.6-2.6-2.6 h-0.7l-1.2,6.6h0.7C244.7,75,246.1,73.5,246.1,71"></path><path class="st3" d="M32.2,23.1c0.6-3.5,0-4.7-5.3-5.4l0.2-1.1h29.2l-1,7.5h-1.9C53.3,21,53.7,19,48.6,19h-6.5 c-3.5,0-3.9,0.7-4.5,4.1l-2.1,12.2h7.9c5.1,0,6-2.2,7-5.1h1.4L49.4,43H48c0-3.6,0.1-5.3-5.1-5.3H35l-2.6,14.5 c-0.6,3.6-0.1,3.6,4.4,3.6h6.7c4.2,0,4.7-1.3,6.4-6h1.9L50,58.2H26L32.2,23.1z"></path><path class="st3" d="M58.5,35.4c0.7-3.7-2.2-3.9-4-4.1l0.2-1.1l9.7-1.5l-1.3,7.4h0.1c1.1-2.2,5.2-7.4,10.2-7.4c5.8,0,6.8,3,6,7.4 h0.1c1.3-2.1,4.8-7.4,10.3-7.4c7.4,0,6.5,4.9,5.6,9.8l-3.5,19.6h-4.8l3.3-18.6c0.8-4.6,1.4-7.8-2.8-7.8c-3.2,0-8.5,5.7-9.5,11.4 l-2.6,15h-4.8l3.5-20c0.6-3.3,1.1-6.4-2.9-6.4s-8.8,6.6-9.7,11.7L59,58.1h-4.8L58.5,35.4z"></path><path class="st3" d="M105.2,41c0.8-4.6,4.3-9.8,8.5-9.8c5.7,0,5.4,8.3,4.6,12.7c-0.9,4.9-3.2,12.6-8.9,12.6c-5.4,0-5.8-6.9-5-11 L105.2,41z M95.1,71.4h4.8L103,54h0.1c0.4,2,2.6,4.9,6.9,4.9c8,0,12.3-7.1,13.7-15.1c1.5-8.6-0.9-15-8.7-15c-4.1,0-7.2,2.9-8.2,4.7 h-0.1l0.8-4.7l-9.9,1.4l-0.2,1.1c1.8,0.2,4.8,0.2,4.2,4.1L95.1,71.4z"></path><path class="st3" d="M128.9,35.4c0.7-3.7-2.2-3.9-3.9-4.1l0.2-1.1l9.7-1.5l-5.2,29.4h-4.8L128.9,35.4z M130.4,19.4 c0.3-1.9,2.2-3.5,4.1-3.5c1.9,0,3.2,1.5,2.9,3.5c-0.4,2-2.2,3.5-4.1,3.5C131.3,22.9,130.1,21.3,130.4,19.4"></path><path class="st3" d="M140.5,35.6c0.7-3.9-2.2-4.1-3.9-4.3l0.2-1.1l9.7-1.5l-1.3,7.4h0.1c1.3-2.6,3.6-7.4,9.5-7.4 c0.2,0,0.4,0,0.5,0.1l-0.9,5.1c-0.6-0.2-1.3-0.4-2-0.4c-6,0-7.9,6.1-8.6,9.8l-2.6,14.8h-4.8L140.5,35.6z"></path><path class="st3" d="M171.2,38.4h-12.6c0.6-2.1,2.4-7.2,8.1-7.2c3.7,0,5.3,3.2,4.6,6.6L171.2,38.4z M172.8,55.8 c-1.4,0.4-3,0.7-4.5,0.7c-8.6,0-11.4-8.7-10.3-14.7l0.2-1.3h18l0.2-0.9c1.3-7.4-2.7-10.8-8.5-10.8c-9,0-13.4,5.3-14.9,14.2 c-1.8,10.3,2.5,16,11.6,16c3.8,0,7.1-0.8,7.9-1.1L172.8,55.8z"></path><path class="st4" d="M217.6,54.9c-0.9,0-1.7,0.7-1.7,1.7c0,0.9,0.7,1.7,1.7,1.7c0.9,0,1.7-0.7,1.7-1.7 C219.2,55.7,218.5,54.9,217.6,54.9z"></path><path class="st1" d="M217.1,57.4h-0.2v-1.8h0.8c0.3,0,0.6,0.1,0.6,0.5c0,0.3-0.1,0.4-0.2,0.4c0.1,0,0.2,0.1,0.2,0.3v0.3 c0,0.1,0,0.1,0.1,0.2l0,0h-0.3c0-0.1,0-0.4,0-0.4c0-0.1,0-0.3-0.3-0.3h-0.6v0.8H217.1z M217.1,56.5h0.6c0.2,0,0.4,0,0.4-0.3 s-0.2-0.3-0.3-0.3h-0.6L217.1,56.5L217.1,56.5z"></path><path class="st4" d="M255.5,55.1c-0.9,0-1.7,0.7-1.7,1.7c0,0.9,0.7,1.7,1.7,1.7c0.9,0,1.7-0.7,1.7-1.7S256.4,55.1,255.5,55.1z"></path><path class="st1" d="M255.1,57.6h-0.2v-1.8h0.8c0.3,0,0.6,0.1,0.6,0.5c0,0.3-0.1,0.4-0.3,0.4c0.1,0,0.2,0.1,0.2,0.3v0.3 c0,0.1,0,0.1,0.1,0.2l0,0H256c0-0.1,0-0.4,0-0.4c0-0.1,0-0.3-0.3-0.3h-0.6L255.1,57.6L255.1,57.6z M255.1,56.6h0.6 c0.2,0,0.4,0,0.4-0.3s-0.2-0.3-0.3-0.3h-0.6L255.1,56.6L255.1,56.6z"></path><path class="st1" d="M214.2,28.7V18h-18.3v10.6h-11.5v18.3h11.5V58h18.4V47h11.1V28.7H214.2z M204.9,49.5c-6.3,0-11.4-5.1-11.4-11.4 s5.1-11.4,11.4-11.4c6.3,0,11.4,5.1,11.4,11.4C216.3,44.4,211.2,49.5,204.9,49.5"></path><path class="st1" d="M202.3,28.9c-0.3,0.8-0.4,1.8,0.4,2.9h-5.1C198,30.6,201.5,28.8,202.3,28.9"></path><path class="st1" d="M207.8,28.9c0.3,0.8,0.4,1.8-0.4,2.9h5.1C212,30.6,208.5,28.8,207.8,28.9"></path><path class="st1" d="M201.2,36.2c0.7,0.1,0.3,1,0.3,1c0.2-0.4-4.1,6.8-4.1,6.8s-3.6-3.1-1.9-8.3L201.2,36.2z"></path><path class="st1" d="M208.7,36.2c-0.7,0-0.3,1-0.3,1c-0.2-0.4,3.9,7.2,3.9,7.2s3.6-3.6,2.3-8.5L208.7,36.2z"></path><path class="st1" d="M215.5,33.4H207c-2.8-0.4-0.6-3-0.5-3.6c0.1-0.4,0-1.7-1.6-1.6c-0.9,0.1-1.3,0.9-1.2,1.6c0.3,1.4,1.9,3-0.4,3.7 h-9.4l-0.3,0.6l6.7,0.5c1.4,0.1,3.2,0.5,3.3,1.6c0.1,1.2-0.5,1.9-1.4,3.3l-5,8.2l0.7,0.6l6.2-8.8c0.6-1,1.5-0.4,1.6-0.1l6,9l0.7-0.6 l-4.7-8.4c-0.7-1.4-1.2-2-1.2-3.3c0-1.1,1.9-1.4,3.3-1.5l6.3-0.4L215.5,33.4z"></path><path class="st1" d="M208.8,47c-1.3,1.2-6.4,1.3-7.9-0.2L205,41L208.8,47z"></path><path class="st1" d="M261.3,18.5c0,0-14.3,7.5-27.6-0.5c-10,18.2,7.2,38.5,13.8,40.5C256.8,54.7,269.7,35.3,261.3,18.5 M247.5,54.9 c-4-1.5-18-14.9-12.4-32.7c14.7,5.8,24.9,0,24.9,0C264,34.4,257.2,49.7,247.5,54.9"></path><path class="st1" d="M245.6,29.1c0.2-0.1,0.5,0,0.7,0c0.1,0,0.1,0.3,0,0.3C246,29.3,245.9,29.1,245.6,29.1L245.6,29.1L245.6,29.1"></path><path class="st1" d="M258.7,23.9c0,0-9.5,5.1-22.4,0.1c-3.5,17,7.8,27.3,11.1,29.2C255.8,47.4,261.6,35.7,258.7,23.9 M246.5,50.5 c0,0.1-0.1,0.1-0.2,0.1c-0.7-0.6-0.4-1.5-0.4-1.7c0.2-0.3,0.3-0.7,0.8-0.8h0.1c0.1,1.3-0.1,1.1-0.3,1.6 C246.4,49.9,246.5,50.2,246.5,50.5 M248.2,47.5c0,0-0.1,3.6-0.2,3.9c-0.1,0.3-0.8,0.3-0.9-0.1C247,51,247,47,247,47 c0-0.1,0-0.3,0.1-0.3c0.1-0.1,0.3,0,0.5,0C247.7,46.7,248.3,46.8,248.2,47.5 M248.4,48.5c0-0.3,0.1-1,0.1-1.2c0,0.7,0.1-0.5-0.2-0.5 c-0.4-0.1-2.8-1.5-2.8-1.6c-0.4-0.3-0.8-0.8-0.5-1.6c0.1-0.3,0.8-1.4,1.7-1.3V44l-0.3,0.1c-0.3,0.8,2.6,1.1,3.3,2.4 C250.4,47.6,248.4,48.9,248.4,48.5 M247,42c0-0.3,0.1-0.4,0.3-0.4s0.9-0.1,1.1,0c0,0,0.2,3.2-0.1,3.3c-0.2,0-1-0.2-1.2-0.6 C246.9,44,247,42,247,42 M250.6,42.9c-0.4,0.6-1.9,1.2-1.9,0.8c0-0.3,0-1.3,0.1-1.5c0-0.1,0.5-0.4,0.2-0.7c-0.7-0.4-1.6,0-2.4-0.2 c-1-0.3-1.2-0.4-1.9-1.3c-0.4-0.5-0.4-1-0.3-1.6c0-0.3,0.1-0.6,0.3-0.8s0.8-0.8,0.9-0.6c0.4,0.7,0.3,1.5,0.7,2.3 c0.1,0.2,0.2,0.2,0.3,0.2c1.1,0.4,2.6,0.2,3.6,0.8C250.1,40.3,251.9,41.1,250.6,42.9 M245.8,36.3l0.4-0.2l0.2-0.4 c0.2-0.1,1.6-0.1,1.9,0c0.3,0.1,0.3,0,0.3,0.3c0.1,0.8,0.1,3.5,0.1,3.5c-0.3,0.1-1.4-0.1-1.4-0.1s-0.4-0.1-0.6-0.2 c-0.2-0.2-0.3-0.7-0.3-0.7c-0.1-0.4-0.1-0.4-0.3-0.8C245.8,36.9,245.7,36.4,245.8,36.3 M249,39v-2.7l0.3-0.1 c0.3-0.5,0.1-0.5-0.2-0.7c-0.6-0.5-3.7-0.1-4.9-0.6c0.5,0.2-3.5-1.5-3.1-3.8c0.4-2,1.5-2.4,2.1-2.7c0.2-0.1,1.7-0.2,2.4,0.1 c0.4,0.2,0.4,0.1,0.8,0.4c0.2,0.1,0.6,0.5,0.7,0.7c0.1,0.1,0.3,0.3,0.3,0.3c-0.4,0.3-1.7,0.1-2.5,0.1c0.4,0.1,0.8,0.3,1.2,0.4 c0.2,0,0.8,0.1,0.8,0.3c0,0.1-0.8,0.3-0.9,0.4c-0.3,0.1-1.6,0-1.6-0.1c-0.5-0.2-1.3,0.1-0.6,0.8c1.8,1.8,5,1,6.7,2 C253.3,35.4,251.3,38.2,249,39 M252,29.9l-2.9,2.6L249,33c-0.4,0-2.3-0.3-2.7-0.3v-1.3l0.2-0.1c0.1-0.1,0.1-0.1,0.3-0.2 c0.1,0,0.3-0.2,0.4-0.2c0.1-0.1,0.1-0.2,0.1-0.2l1.2,0.4V31c0,0-1-0.4-1.1-0.6c-0.1-0.3,0.3-0.1,0.4-0.2c0.1-0.1-1.1-1.3-1.2-1.4 c-0.2-0.1-0.2-0.6-0.1-0.9c0.1-0.3,0.6-0.2,0.6-0.2l1.9,0.9c0.3,0.3-0.1,1.4,0,1.6s0.1,0.2,0.3,0.2c0.2,0.1,0.8-0.6,1.2-1 C251,28.8,252.2,29,252,29.9"></path></svg>