<svg xmlns="http://www.w3.org/2000/svg" xmlns:xlink="http://www.w3.org/1999/xlink" id="Layer_1" x="0px" y="0px" viewBox="0 0 360 144" style="enable-background:new 0 0 360 144;" xml:space="preserve"><style type="text/css">	.st0{fill-rule:evenodd;clip-rule:evenodd;fill:#909090;}	.st1{fill-rule:evenodd;clip-rule:evenodd;fill:#585858;}	.st2{fill-rule:evenodd;clip-rule:evenodd;fill:#717575;}</style><g>	<path class="st0" d="M58.8,50.3v-8.7c0,0-21.3,0-21.5,0C35.1,41.7,33,42.2,31,43c-2.8,1.2-5.2,3-7.1,5.4c-1.9,2.3-3.1,5.1-3.7,8  c-0.6,2.8-0.5,5.7,0.2,8.5c0.7,2.6,1.8,4.9,3.5,7s3.9,3.9,6.4,5.1c2.7,1.3,5.7,1.9,8.6,1.7c2.1-0.1,4.2-0.7,6.1-1.5h0.1l0.1-0.1  c0.7-0.3,1.4-0.7,2-1.1c0.1-0.1,0.3-0.2,0.4-0.3l0,0l0,0l0,0c2-1.4,3.7-3.1,5-5.1c0.3-0.4,0.5-0.9,0.8-1.3c0.9-1.8,1.6-3.6,1.9-5.6  c0.6-3.4,0.3-6.8-0.9-10c-0.3-0.9-0.7-1.8-1.2-2.6c-0.1-0.1-0.3-0.4-0.4-0.5L58.8,50.3L58.8,50.3z M37.8,70L37.8,70  c-5.3,0-9.6-4.4-9.6-9.9c0-5.4,4.3-9.9,9.6-9.9c0.1,0,0.2,0,0.3,0l0,0c0.8,0,1.5,0.1,2.3,0.4c4,1.2,7,5,7,9.5  c0,5.1-3.7,9.2-8.5,9.8h-0.2l0,0c-0.2,0-0.5,0-0.7,0C38,70,37.8,70,37.8,70z"></path>	<path class="st1" d="M38.1,102.3c-11,0-19.9-9.2-19.9-20.5c0-4.1,1.1-7.8,3.1-11c1.9,3.3,4.1,5.2,6.2,6.4c-0.6,1.5-0.9,3-0.9,4.6  c0,6.5,5.2,11.8,11.5,11.8s11.5-5.3,11.5-11.8c0-2.2-0.6-4.4-1.8-6.3c-2-3.3-5.6-5.5-9.7-5.5H38h-0.2c-4.1,0-7.5-2.7-8.9-6.4  c2.8-1.5,6-2.3,9.2-2.3c3.1,0,6.1,0.7,8.8,2.1c2.6,1.3,4.9,3.2,6.7,5.6c2.9,3.7,4.4,8.2,4.4,12.8C58,93.1,49,102.3,38.1,102.3z"></path>	<path class="st2" d="M54.9,54.4c-3.6-1.7-9.5-3-14.5-3.7c-0.8-0.2-1.5-0.3-2.3-0.4H53c0.1,0.1,0.3,0.4,0.4,0.5  c0.5,0.8,0.9,1.7,1.2,2.6C54.7,53.8,54.8,54.1,54.9,54.4 M47.8,75.5L47.8,75.5L47.8,75.5L47.8,75.5L47.8,75.5  c-0.2,0.2-0.4,0.3-0.5,0.4c-0.6,0.4-1.3,0.8-2,1.1c-1-2.4-3.6-5.4-7.1-6.9L38,70c0.1,0,0.1,0,0.2,0C42.2,70.1,45.8,72.2,47.8,75.5"></path>	<path class="st1" d="M99.7,70v8.4h9.9c-1.4,4-5.3,7.4-11,7.4c-8,0-13-6.1-13-13.2c0-8.8,5.5-14.3,13.3-14.3c3.2,0,7.4,0.9,9.8,4.9  h9.9c-3.1-9.1-11.3-13.6-19.9-13.6c-12.4,0-22.2,9.4-22.2,23c0,11.9,9.1,21.9,22,21.9c5.8,0,10.1-2,13-5.1v4.2h8.2V70H99.7L99.7,70  z M145.7,82.8c-2,2.5-4.3,3.8-6.5,3.8c-4,0-6.4-2.6-6.4-7.4v-16h-8.6V80c0,8.8,5.2,14.6,12.9,14.6c3.3,0,6-1.1,8.5-3.1v2.2h8.6  V63.2h-8.6L145.7,82.8L145.7,82.8z M181.1,65c-2.3-1.5-5.1-2.4-8.4-2.4c-8.1,0-14.7,6.9-14.7,15.9c0,8.8,6.6,15.8,14.7,15.8  c3.3,0,6.1-0.9,8.4-2.4v1.8h8.6V63.2h-8.6V65L181.1,65z M181.1,83.3c-1.9,2.6-4.4,3.5-7,3.5c-4.5,0-7.6-3.9-7.6-8.3  c0-4.5,3.1-8.4,7.6-8.4c2.5,0,5.1,0.9,7,3.6V83.3z M203.6,63.2H195v30.4h8.6V75.5c2.5-2.8,5.7-4.2,10.4-4.4v-8.4  c-4.4,0-7.7,1.4-10.4,3.9V63.2L203.6,63.2z M237.9,65c-2.3-1.5-5.1-2.4-8.4-2.4c-8.1,0-14.7,7-14.7,15.8c0,8.9,6.6,15.9,14.7,15.9  c3.3,0,6.1-0.9,8.4-2.4v1.8h8.6V50.2h-8.6V65L237.9,65z M237.9,83.3c-1.9,2.7-4.4,3.6-7,3.6c-4.5,0-7.6-3.9-7.6-8.4  c0-4.4,3.1-8.3,7.6-8.3c2.5,0,5.1,0.9,7,3.5V83.3L237.9,83.3z M288.2,65c-2.3-1.5-5.1-2.4-8.4-2.4c-8.1,0-14.7,6.9-14.7,15.9  c0,8.8,6.6,15.8,14.7,15.8c3.3,0,6.1-0.9,8.4-2.4v1.8h8.6V63.2h-8.6V65L288.2,65z M288.2,83.3c-1.9,2.6-4.4,3.5-7,3.5  c-4.5,0-7.6-3.9-7.6-8.3c0-4.5,3.1-8.4,7.6-8.4c2.5,0,5.1,0.9,7,3.6V83.3L288.2,83.3z M318.9,62.3c-3.3,0-6,1.1-8.5,3.1v-2.2h-8.6  v30.4h8.6V74.1c2-2.5,4.3-3.8,6.5-3.8c4,0,6.4,2.6,6.4,7.4v15.9h8.6V76.9C331.8,68,326.6,62.3,318.9,62.3 M252.5,93.6h8.6V63.2  h-8.6V93.6z M252.5,59h8.6v-8.8h-8.6V59z M341.9,61c0,1.7-1.4,3.1-3.1,3.1s-3.1-1.3-3.1-3.1c0-1.7,1.4-3.1,3.1-3.1  S341.9,59.3,341.9,61L341.9,61z M341.2,61c0-1.3-1.1-2.4-2.4-2.4s-2.4,1.1-2.4,2.4c0,1.4,1.1,2.4,2.4,2.4S341.2,62.4,341.2,61z   M339.4,61.4l0.7,1h-0.6l-0.7-0.9h-0.5v0.9h-0.5v-2.8h1.2c0.6,0,1.1,0.4,1.1,1C340,60.9,339.7,61.3,339.4,61.4L339.4,61.4z   M338.9,61c0.3,0,0.6-0.2,0.6-0.5s-0.2-0.5-0.6-0.5h-0.7v1H338.9L338.9,61z"></path></g></svg>