<svg xmlns="http://www.w3.org/2000/svg" xmlns:xlink="http://www.w3.org/1999/xlink" id="Layer_1" x="0px" y="0px" viewBox="0 0 288 144" style="enable-background:new 0 0 288 144;" xml:space="preserve"><style type="text/css">	.st0{fill:#808080;}	.st1{fill:#FFFFFF;}</style><g>	<g>		<g>			<g>				<path class="st0" d="M60,99.5c-1.9,2.2-4.6,5.4-4,7.8l0,0c0.5,1.9,3.2,3.2,3.2,3.2l5.9,3.2l-3.8,3.2l4.6,1.4     c0,0-4.3,4.3-4.6,4.9c-1.1,0.3-2.4,0.3-3.8,0.3c-9.7,0-23.2-5.7-26.5-5.7c-4.1,0-9.2,2.2-9.2,2.2l2.7-3c0,0-3.5,0.8-6.8,0.5     l4.6-3.2c-4,0-7.8-1.4-9.4-2.7c0,0,7.6-0.5,18.1-0.5c4.3,0,11.3,0.5,11.3,0.5c-3.5-1.6-6.8-3.5-8.1-7l6.8,1.1     c-2.7-1.6-7-5.9-7.6-9.4l7.6,2.7c-1.3-1.3-5.9-5.7-6.8-10.8l5.9,3.8c-1.6-1.6-5.7-9.7-5.1-12.2l5.4,3.8     c-2.7-3.2-5.7-11.9-3.5-15.4c1.6,6.5,5.4,8.9,5.4,8.9c-2.4-3.5-7.8-16.2-2.7-21.6c1.3,12.4,6.8,16.7,6.8,16.7     c-4.3-7-9.5-28.6,0-32.9c-1.9,13.8,2.7,21.3,2.7,21.3C46.5,48,46.5,29.9,56,28.3c-4.6,13.5-1.4,24-1.4,24     C53,20.4,63.3,21,63.3,21s-1.6,8.9-1.6,25.1v46.4C61.7,96,61.4,97.9,60,99.5L60,99.5z M66.2,110.9c4,0.3,7,0.5,10,1.1     c1.1,0.3,1.6,1.3,1.6,2.2c-1.4-0.3-3.5-0.5-3.5-0.5v1.3c0,0,1.9-0.5,4-0.5c0,0,4.3,0,4.1,3c-1.1-0.8-3.5-0.5-4.3-0.3     c-2.2,0.3-4.3,1.3-6.5,2.7c-2.2,1.1-4.6,2.4-7.3,3.2c1.1-1.1,4.3-4.6,4.3-4.6l-4.3-2.2l3.5-3l-5.4-3     C63.8,110.6,64.9,110.6,66.2,110.9L66.2,110.9z M66.5,106h19.2V43.1H68.1v39.1L63,77.4V46.1c0-18.4,2.2-27,2.2-27     c-5.9,0-8.9,5.7-9.7,7.3c-3.2,0.3-5.9,2.2-7.6,5.9c-1.1,2.2-1.6,4.1-1.6,5.1c-7,1.6-7.6,14-7,16.2L28.4,43.1H9V106h17.5V67.9     l8.4,8.1c0.8,2.2,1.6,3.2,1.6,3.2l-3.2-3c-0.5,6.2,1.1,9.5,2.7,11.6l-4-3.5c-0.3,6.2,2.7,10,4.6,11.6l-5.4-2.7     c-0.3,3.8,3.2,8.9,5.4,10l-4.6-0.5c1.1,5.1,4.6,6.8,4.6,6.8s-7.8,0.3-11.3,0.3c-9.7,0-16.2,0.8-16.2,0.8s4.3,4.3,10,4.6l-4.9,3     c3.5,1.4,6.8,0.8,6.8,0.8l-3,3.5c0,0,8.9-3.5,12.7-3.2c3,0.3,17,5.7,26.5,5.7c6.5,0,11.1-2.4,14.6-4.3c2.2-1.1,4.3-2.2,6.2-2.4     c3.5-0.5,4.9,0.8,4.9,0.8c0.3-1.3,1.3-5.1-4-5.9c-0.3-1.1-1.1-2.2-2.7-2.4c-3-0.5-15.7-1.4-15.9-1.4c-1.1,0-4.6-0.8-1.4-5.7     c0.3-0.3,1.9-2.4,1.9-2.4L66.5,106"></path>			</g>		</g>	</g>	<path class="st0" d="M162.9,65c1.4,0,2.7,1.1,2.7,2.4s-1.4,2.4-2.7,2.4c-1.3,0-2.7-1.1-2.7-2.4S161.3,65,162.9,65"></path>	<path class="st0" d="M231.5,65c1.3,0,2.7,1.1,2.7,2.4s-1.4,2.4-2.7,2.4c-1.4,0-2.7-1.1-2.7-2.4S229.9,65,231.5,65"></path>	<path class="st0" d="M144.3,78.2v9.4h-4V86c-1.1,1.1-2.4,1.9-4.6,1.9c-3.2,0-5.9-1.9-5.9-4.9c0-4.6,4.9-5.7,9.7-5.7h0.5  c0-1.3-0.5-2.4-3-2.4c-1.6,0-3.2,0.5-4.3,1.6l-2.4-2.4c1.6-1.6,4.1-2.7,6.8-2.7s4.1,0.3,5.7,1.6C144,74.7,144.3,76.9,144.3,78.2   M139.9,80.9L139.9,80.9c-1.1,0-2.7,0-4.1,0.5c-0.8,0.3-1.6,0.8-1.6,1.6c0,1.1,1.1,1.6,2.2,1.6c2.2,0,3.5-1.3,3.5-3.2V80.9"></path>	<path class="st0" d="M153.4,72v-4.9h-4.6V72h-3v3.8h3v6.8c0,2.2,0.3,3.5,1.3,4.6c0.8,0.8,2.2,1.3,4.1,1.3c1.1,0,2.4-0.3,3.2-0.5  v-4.1c-0.5,0.3-1.4,0.3-2.4,0.3c-1.3,0-1.6-0.8-1.6-2.2v-6.2h4.1V72H153.4"></path>	<path class="st0" d="M272,80.1v1.1h-11.6c0,1.6,1.9,3,4,3c1.9,0,3-0.8,4.1-1.9l3,2.2c-1.6,2.2-3.8,3.5-7,3.5c-4.9,0-8.6-3-8.6-8.4  c0-4.3,2.7-8.4,8.1-8.4C269.8,71.7,272,76.1,272,80.1 M267.1,78.2c-0.3-1.6-1.1-3-3.5-3c-1.9,0-3.2,1.3-3.5,3H267.1"></path>	<polyline class="st0" points="122.1,65 122.1,80.4 112.4,65 106.5,65 106.5,87.7 111.3,87.7 111.3,71.7 121.3,87.7 127,87.7   127,65 122.1,65  "></polyline>	<polyline class="st0" points="222.8,72 220.1,81.7 217.7,72 213.1,72 210.7,81.7 208,72 203.1,72 208,87.7 212.6,87.7 215.3,77.9   218.2,87.7 222.6,87.7 227.7,72 222.8,72  "></polyline>	<rect x="160.5" y="72" class="st0" width="4.6" height="15.7"></rect>	<rect x="229.1" y="72" class="st0" width="4.6" height="15.7"></rect>	<path class="st0" d="M200.2,73.1c-1.1-1.1-2.2-1.4-3.8-1.4s-3.8,0.8-4.6,2.2v-1.6h-4.3v15.7h4.6v-8.6c0-1.1,0.3-1.9,0.8-2.4  c0.5-0.5,1.1-0.8,1.9-0.8c1.1,0,1.6,0.3,1.9,0.8c0.5,0.5,0.5,1.6,0.5,3.2v8.1h4.6v-9.7C201.8,76.1,201.5,74.4,200.2,73.1"></path>	<path class="st0" d="M253.4,65v23H249v-1.6c-1.1,1.1-2.7,2.2-4.9,2.2s-4.1-0.8-5.4-2.2c-1.6-1.6-2.4-3.8-2.4-6.2  c0-4.9,3.2-8.4,7.6-8.4c1.9,0,3.5,0.5,4.9,1.9V65H253.4L253.4,65z M248.8,79.8c0-2.2-1.4-4.3-4.1-4.3s-4.1,2.2-4.1,4.3  c0,2.2,1.4,4.3,4.1,4.3S248.8,82,248.8,79.8"></path>	<path class="st0" d="M184.8,79.8c0,4.9-3.5,8.4-8.6,8.4c-4.9,0-8.6-3.5-8.6-8.4s3.5-8.4,8.6-8.4C181.3,71.7,184.8,75,184.8,79.8   M176.1,75.5c-2.7,0-4.1,2.2-4.1,4.3c0,2.2,1.4,4.3,4.1,4.3s4.1-2.2,4.1-4.3S178.8,75.5,176.1,75.5"></path>	<path class="st0" d="M274.1,70.4h0.8v-1.6h0.5l0.8,1.6h0.8l-1.1-1.6c0.5,0,1.1-0.5,1.1-1.1c0-0.8-0.5-1.3-1.4-1.3h-1.6L274.1,70.4  L274.1,70.4z M274.7,67.1h0.5c0.5,0,1.1,0,1.1,0.5s-0.5,0.5-1.1,0.5h-0.5V67.1L274.7,67.1z M271.7,68.5c0,1.9,1.6,3.5,3.5,3.5  c1.9,0,3.5-1.6,3.5-3.5s-1.6-3.5-3.5-3.5C273.3,65,271.7,66.6,271.7,68.5 M272.5,68.5c0-1.6,1.4-3,3-3s3,1.3,3,3s-1.4,3-3,3  S272.5,70.1,272.5,68.5"></path>	<path class="st1" d="M60,99.5c-1.9,2.2-4.6,5.4-4,7.8l0,0c0.5,1.9,3.2,3.2,3.2,3.2l5.9,3.2l-3.8,3.2l4.6,1.4c0,0-4.3,4.3-4.6,4.9  c-1.1,0.3-2.4,0.3-3.8,0.3c-9.7,0-23.2-5.7-26.5-5.7c-4.1,0-9.2,2.2-9.2,2.2l2.7-3c0,0-3.5,0.8-6.8,0.5l4.6-3.2  c-4,0-7.8-1.4-9.4-2.7c0,0,7.6-0.5,18.1-0.5c4.3,0,11.3,0.5,11.3,0.5c-3.5-1.6-6.8-3.5-8.1-7l6.8,1.1c-2.7-1.6-7-5.9-7.6-9.4  l7.6,2.7c-1.3-1.3-5.9-5.7-6.8-10.8l5.9,3.8c-1.6-1.6-5.7-9.7-5.1-12.2l5.4,3.8c-2.7-3.2-5.7-11.9-3.5-15.4  c1.6,6.5,5.4,8.9,5.4,8.9c-2.4-3.5-7.8-16.2-2.7-21.6c1.3,12.4,6.8,16.7,6.8,16.7c-4.3-7-9.5-28.6,0-32.9  c-1.9,13.8,2.7,21.3,2.7,21.3C46.5,48,46.5,29.9,56,28.3c-4.6,13.5-1.4,24-1.4,24C53,20.4,63.3,21,63.3,21s-1.6,8.9-1.6,25.1v46.4  C61.7,96,61.4,97.9,60,99.5L60,99.5z M66.2,110.9c4,0.3,7,0.5,10,1.1c1.1,0.3,1.6,1.3,1.6,2.2c-1.4-0.3-3.5-0.5-3.5-0.5v1.3  c0,0,1.9-0.5,4-0.5c0,0,4.3,0,4.1,3c-1.1-0.8-3.5-0.5-4.3-0.3c-2.2,0.3-4.3,1.3-6.5,2.7c-2.2,1.1-4.6,2.4-7.3,3.2  c1.1-1.1,4.3-4.6,4.3-4.6l-4.3-2.2l3.5-3l-5.4-3C63.8,110.6,64.9,110.6,66.2,110.9"></path></g></svg>