<svg xmlns="http://www.w3.org/2000/svg" id="payroll_administration" viewBox="0 0 31.6 31.6"><circle id="Ellipse_26" cx="6.1" cy="17" r="1.2" fill="#9b9b9b"></circle><circle id="Ellipse_27" cx="6.1" cy="23.1" r="1.2" fill="#9b9b9b"></circle><circle id="Ellipse_28" cx="11.5" cy="17" r="1.2" fill="#9b9b9b"></circle><circle id="Ellipse_29" cx="11.5" cy="23.1" r="1.2" fill="#9b9b9b"></circle><circle id="Ellipse_30" cx="17" cy="23.1" r="1.2" fill="#9b9b9b"></circle><path id="Path_493" d="M25.7,18.6l.4,7.8c0,.8-.7,1.5-1.5,1.5H3.3c-.8,0-1.5-.7-1.5-1.5l.5-13.1h12.3v-3.6c0-2,.6-3.9,1.8-5.5h-7.3v-1.2c0-.7-.6-1.2-1.2-1.2-.6,0-1.2.5-1.2,1.2v5.7c0,.7.6,1.2,1.2,1.2.6,0,1.2-.5,1.2-1.2v-2.1c1.2.7,1.5,2.2.9,3.3s-2.2,1.5-3.3.9c-.7-.4-1.2-1.2-1.2-2.1v-4.5H.9l-.9,22.1c0,1.8,1.5,3.3,3.3,3.3h21.2c1.8,0,3.3-1.5,3.3-3.4,0,0,0,0,0,0l-.4-8.4c-.6.3-1.2.5-1.8.6Z" fill="#221f1f"></path><path id="Path_494" d="M23.7,1.8c-4.4,0-7.9,3.5-7.9,7.9v7.9h7.9c4.4,0,7.9-3.5,7.9-7.9s-3.5-7.9-7.9-7.9h0ZM26.7,6.7h-3.6c-.7,0-1.2.5-1.2,1.2,0,.7.5,1.2,1.2,1.2,0,0,0,0,0,0h1.2c1.3,0,2.4,1.1,2.4,2.4s-1.1,2.4-2.4,2.4v1.8h-1.2v-1.8h-2.4v-1.2h3.6c.7,0,1.2-.5,1.2-1.2,0-.7-.5-1.2-1.2-1.2,0,0,0,0,0,0h-1.2c-1.3,0-2.4-1.1-2.4-2.4s1.1-2.4,2.4-2.4h0v-1.8h1.2v1.8h2.4v1.2Z" fill="#f57e32"></path></svg>
