<svg xmlns="http://www.w3.org/2000/svg" id="hr" viewBox="0 0 32.1 32.1"><path id="Path_448" d="M12.4,2.1c0,1.2,1,2.1,2.1,2.1s2.1-1,2.1-2.1S15.7,0,14.5,0c-1.2,0-2.1,1-2.1,2.1Z" fill="#f57e32" fill-rule="evenodd"></path><path id="Path_449" d="M17.6,3.5c0,1.2,1,2.1,2.1,2.1s2.1-1,2.1-2.1-1-2.1-2.1-2.1c-1.2,0-2.1,1-2.1,2.1Z" fill="#f57e32" fill-rule="evenodd"></path><path id="Path_450" d="M19,6.4h-.4c-1.1,0-2.1.9-2.1,2.1v4.1c0,.7.5,1.2,1.2,1.2l.2,6.6c0,.4.4.7.8.7h2.2c.4,0,.7-.3.8-.7l.2-6.6c.6,0,1.2-.5,1.2-1.2v-4.1c0-1.1-.9-2.1-2.1-2.1h-.4l-.8.9-.8-.9Z" fill="#f57e32" fill-rule="evenodd"></path><path id="Path_451" d="M22.8,2.1c0,1.2,1,2.1,2.1,2.1s2.1-1,2.1-2.1S26.1,0,25,0c-1.2,0-2.1,1-2.1,2.1Z" fill="#f57e32" fill-rule="evenodd"></path><path id="Path_452" d="M24.2,5h-.4c-.7,0-1.4.4-1.7,1,1,.4,1.6,1.4,1.6,2.5v4.1c0,.6-.3,1.1-.7,1.5v4.9c.2.4.5.7.9.7h2.2c.4,0,.7-.3.8-.7l.2-6.6c.7,0,1.2-.5,1.2-1.2v-4.1c0-1.1-.9-2.1-2.1-2.1h-.4l-.8.9-.8-.9Z" fill="#f57e32" fill-rule="evenodd"></path><path id="Path_453" d="M13.7,5h-.4c-1.1,0-2.1.9-2.1,2.1v4.1c0,.7.5,1.2,1.2,1.2l.2,6.6c0,.4.4.7.8.7h2.2c.4,0,.7-.3.8-.7v-4.9c-.3-.4-.6-.9-.6-1.5v-4.1c0-1.1.6-2.1,1.6-2.5-.4-.6-1-1-1.7-1h-.4l-.8.9-.8-.9Z" fill="#f57e32" fill-rule="evenodd"></path><path id="Path_454" d="M5.9,24.3l2.3,5.3,1.4-.6c1-.4,2.2-.5,3.2-.1l4.1,1.2c1.2.5,2.6.4,3.8,0l4.3-2.3c1.4-.7,1.8-.8,2.7-2l2.2-3.1c.6-.9,0-1.7-.9-1.4-.4-.4-1.1-.4-1.5,0-1.6,1-2.6,2.4-4.1,3.1.2.1.3.3.3.5.5,1.4-1.3,2.3-2.5,2.1l-3.7-.6c-.9-.2-1.8,0-2.7.2-.3.1-.4-.3-.1-.5.9-.3,1.9-.4,2.9-.2l1.7.3,2,.3c.8.1,2.3-.5,1.9-1.4-.2-.4-.7-.7-1.1-.7-.9-.2-1.8-.3-2.8-.5-1.3-.3-2.6-.7-3.8-1.3-2.8-1.3-5.7-1.2-7.9.7-.5.5-1.1.9-1.8,1.2h0Z" fill="#9b9b9b" fill-rule="evenodd"></path><path id="Path_455" d="M7.8,30.6l-3-6.7-2.9.9,3.2,7.4,2.6-1.5Z" fill="#221f1f" fill-rule="evenodd"></path></svg>
