<svg xmlns="http://www.w3.org/2000/svg" id="benefits" viewBox="0 0 35.5 35.5"><g id="Group_41719"><path id="Path_347" d="M21.3,15.8l-3.4-1.8-3.4,1.7.7-3.7-2.7-2.7,3.8-.5,1.7-3.4,1.6,3.4,3.8.6-2.8,2.6.6,3.8Z" fill="#f57e32"></path></g><g id="Group_41720"><path id="Path_348" d="M18,21.8c-6,0-10.9-4.9-10.9-10.9S12,0,18,0c6,0,10.9,4.9,10.9,10.9,0,6-4.9,10.9-10.9,10.9ZM18,3.1c-4.3,0-7.8,3.5-7.8,7.8s3.5,7.8,7.8,7.8,7.8-3.5,7.8-7.8h0c0-4.3-3.5-7.8-7.8-7.8h0Z" fill="#221f1f"></path></g><g id="Group_41721"><path id="Path_349" d="M30.4,33.7l-8.2-10.4-3.4,5.6,3.9,5.6,2-2.5,5.7,1.8Z" fill="#9b9b9b"></path></g><g id="Group_41722"><path id="Path_350" d="M13.6,22.2l-8.5,13.3,5.9-3,1.9,3,8.2-12.9c-2.5.7-5.1.6-7.5-.4Z" fill="#9b9b9b"></path></g></svg>
