<svg xmlns="http://www.w3.org/2000/svg" id="recruitment" viewBox="0 0 39.4 39.4"><path d="M23,28.5v1h-6.5v-1H0l2.2,3.7h35.1l2.2-3.7h-16.4Z" fill="#9b9b9b"></path><path id="Path_538" d="M7.4,26.7V10.3h24.9v16.3h3.2V8.9c0-1-.8-1.7-1.7-1.8H5.9c-1,0-1.7.8-1.7,1.8,0,0,0,0,0,0v17.7h3.2Z" fill="#221f1f"></path><path id="Path_539" d="M25.9,23.3l-2.8-2.7c1.3-2.8,0-6.1-2.7-7.4-.7-.3-1.4-.5-2.2-.5-1.3,0-2.6.7-3.5,1.7-2,2.3-1.8,5.9.5,7.9,1,.9,2.2,1.4,3.5,1.4.9,0,1.7-.3,2.4-.8l2.8,2.6c.1.1.3.2.5.2h0c.2,0,.4-.1.6-.3l1-1.2c.2-.3.2-.8-.1-1.1ZM15.8,18.3c0-.8.2-1.6.7-2.1.4-.5,1.1-.8,1.8-.8,1.7,0,2.9,1.5,2.9,3.1,0,.7-.3,1.3-.7,1.8-.4.5-1.1.8-1.8.8-1.6,0-2.8-1.2-2.9-2.8Z" fill="#fc7e2f"></path></svg>
