<svg xmlns="http://www.w3.org/2000/svg" id="workers_comp" viewBox="0 0 36 36"><path id="Path_589" d="M7.8,27.7h-.8c-.4,0-.7.3-.7.7,0,0,0,0,0,0,0,.3.4.6.7.6h.8c.4,0,.7-.3.7-.7,0,0,0,0,0,0,0-.3-.3-.6-.7-.6Z" fill="#9b9b9b"></path><path id="Path_590" d="M9.8,29.3v2.7c3.3.5,6.7.5,10,0v-.6c-.6-.6-1.1-1.3-1.4-2.1h-8.6Z" fill="#9b9b9b"></path><path id="Path_591" d="M26.2,34.7l-.4-.3s-1.3-.8-2.4-1.4c-3.3-1.7-4.7-3.9-4.8-7.4,0-2.5-.6-5-1.6-7.3l-.6-1.1h1.6c2.8-.4,5.5-1.4,7.8-2.9l.5-.3.5.3c2.3,1.6,5,2.5,7.8,2.8h1.6c0,.1-.6,1.2-.6,1.2-1,2.3-1.6,4.8-1.6,7.3-.1,3.5-1.6,5.8-4.8,7.4-1.1.6-2.4,1.4-2.4,1.4l-.4.3ZM18.8,18.6c.8,2.2,1.3,4.6,1.3,6.9,0,3,1.2,4.6,3.9,6.1.8.4,1.6.9,2.1,1.2.5-.3,1.3-.8,2.1-1.2,2.8-1.4,3.8-3.1,3.9-6.1,0-2.4.5-4.7,1.3-6.9-2.6-.4-5.1-1.3-7.4-2.7-2.2,1.4-4.7,2.3-7.4,2.7h0Z" fill="#f57e32"></path><path id="Path_592" d="M24.6,29l-3.5-4.8,2.3-.9,1.4,1.4,3.2-4.5,3.6,1.1-7,7.7Z" fill="#f57e32"></path><path id="Path_593" d="M14.7,13.7c4.1,0,7.5-1.2,7.8-2.4,0,0,0-.1,0-.2,0-.4-.5-.7-.9-.8h0s-4.5,1.1-4.5,1.1l4.3-2.6c-.4-1.6-.3-2.7-1.7-3.6h0c-.7-.5-1.3-1.1-1.6-1.9h0s-.8,5.9-.8,5.9l-.6-7.8h-4l-.5,7.8-.9-5.9c-.3.7-.8,1.4-1.5,1.8,0,0,0,0-.1,0-1.4,1-1.4,2.1-1.8,3.8l4.1,2.5-4.4-1.1c-.4.1-.8.4-.8.8,0,0,0,.1,0,.2.3,1.2,3.7,2.4,7.8,2.4Z" fill="#221f1f"></path><path id="Path_594" d="M20.7,14.8l.3-1.3c-2,.7-4.2,1.1-6.3,1.1-2.2,0-4.4-.3-6.4-1.1l.3,1.4c0,.3.3.4.6.4,0,0,0,0,.1,0,.4,1.1.9,2.1,1.7,3h0v1.1c-.1.5-.5.9-.9,1.1l-1.5.6v3.2c0,.8-.7,1.5-1.5,1.5h0c-.8,0-1.5-.7-1.5-1.5h0v-2l-2,.6c-1.4.5-2.4,1.7-2.6,3.2,0,.4-.2.8-.3,1.2l-.6,2.2c1.6.7,3.3,1.3,5,1.7v-3.5c0-.5.4-.9.9-.9h11.8c0-.4,0-.9-.1-1.3,0-2.4-.5-4.7-1.5-6.9l-1.2-2.3,2.9-.3c.7,0,1.4-.2,2-.3,0-.2.2-.4.2-.6,0,0,0,0,0,0,.3,0,.5-.2.6-.4Z" fill="#9b9b9b"></path></svg>
