<svg xmlns="http://www.w3.org/2000/svg" xmlns:xlink="http://www.w3.org/1999/xlink" id="Layer_1" x="0px" y="0px" viewBox="0 0 8192 6912" style="enable-background:new 0 0 8192 6912;" xml:space="preserve"><style type="text/css">	.st0{fill:#707070;}	.st1{fill:#585858;}</style><path class="st0" d="M7221.3,3974.4l146.9-14.4l-33.5-422.1l-134.4-4.5c0,0,0.3,7.5-2.3,19.2c-21.9,96.4-72.6,44.1-111,29.8 c-140.4-51.7-283.8-65.4-431.9-48.1c-368.4,43-592.1,385.8-475.8,730.7c80.7,239.1,315.6,386.9,575.7,387.6 c257,4,449-52.6,596.6-221.6c20.3-23.3,41.8-55.2,41.8-55.2l-123.2-95.2c0,0-16,13.7-33.6,32.6 c-115.4,124.3-263.5,159.9-429.1,146.8c-256-20.4-413.7-250.3-337.4-495.7c48-154.4,161-234.3,311.9-253.7 c177.7-22.9,327.1,41.6,412.8,203.3C7206.6,3936.3,7221.3,3974.4,7221.3,3974.4 M5447,4613.9h625.6V4460h-114.8 c-32.9,0-59.7-26.6-59.7-59.7l-0.1-0.1v-678.4l0.1-0.1c0-32.9,26.8-59.7,59.7-59.7h114.8v-126H4948.3v126h78.3h8.4 c32.9,0,59.8,26.7,59.8,59.7c0,13.1-5.1,24.6-12.2,34.3l-307.9,537.9l-309-534.8l0.3-0.4c-8.4-10.2-14.2-22.8-14.2-37.1 c0-32.9,26.7-59.7,59.8-59.7h114.8v-126h-663.2v126h86.7c26.2,0,47.9,17.3,56,40.8l517.8,910.8h207.1l486.8-909.4 c7.6-24.3,29.4-42.2,56.2-42.2h0.1h183.7c32.9,0.1,59.7,26.7,59.7,59.7c0,0.2-0.1,0.3-0.1,0.5v677.5c0,0.2,0.1,0.2,0.1,0.4 c0,32.9-26.7,59.7-59.7,59.7h-110.6v154.1H5447z M4217.6,4460L3682,3536.3h-453.4v126h96.5c28,4.9,49.9,31.7,49.9,61.2 c0,14.2-5.7,26.7-14,37l-332.9,571.6c-66.9,93.8-162.1,108.3-162.1,108.3h-409.6c0,0,2.1-725.2,3-727.7 c4.6-25.5,24.7-44.9,50.5-48.1c3-1.3,128.4-2.3,128.4-2.3v-126h-627v126c0,0,106.7,1,108.7,1.6c1.2-0.1,2.2-0.7,3.3-0.7 c32.9,0,59.8,26.7,59.8,59.7c0,4.2-1,653.1-1,692.2c0,39.2-44.7,44.8-44.7,44.8h-126v153.9h825.3h372.7h162v-152l-99.2-5.6 c-25.5-6.8-44.6-29-44.6-56.7c0-4,1.5-7.6,2.3-11.4l-0.2-0.2l42.8-80.5h517.1c0,0,45.9,75.3,45.9,92.2c0,32.8-26.4,59.4-59.3,59.7 l-116.5,0.8v153.8h682.8V4460H4217.6z M3694.8,4136.7H3363l162.3-305.4L3694.8,4136.7z M1948,4265.4 c-30.1-157.6-151.6-217.9-284.5-255.8c-156.9-44.8-318.1-74.3-476.1-115.6c-37.6-9.8-89.8-22.3-88.7-76.9 c0.9-48.5,38.5-71.7,80.9-88.4c158.6-62.5,439.2-8.3,545.1,123.3c26.4,32.9,52.2,62.7,52.2,62.7l138.2-5.5l-43.8-371.5l-130.7,19.1 c-10.8,102.6-72.7,50.5-103.8,36.7c-145.4-64.1-295.9-79.7-450-57c-146.6,21.6-278.4,77.8-336.5,227.1 c-67.9,173.8,33.4,336.4,249.4,414.2c157.7,56.8,325.9,71.6,485.7,119.3c44,13.1,110.3,21.8,102.6,88.5 c-7,60.4-66.7,67.2-115.8,74.4c-240,35.5-455.2-10.7-615.3-206.7c-7.7-9.4-21.9-29.7-21.9-29.7l-135.8,11.5l49.7,393.4l135,4.4 c0,0-1.4-10.5-0.9-19.9c7.1-114.9,72-50.7,107.3-36.3c215.9,87.7,434.1,108.6,656.1,31.6C1903.5,4553.9,1977.6,4421.8,1948,4265.4"></path><path class="st1" d="M5707.5,5646.8l-291.1-319c117.8-85.4,238.3-170.7,257.2-176.5c38.4-11.7,104-10.3,104-10.3v-88h-407.3v88h41.7 c49.3,0,42.4,37.5,29.3,46.2c-10.6,7-194,128.9-266.8,177.3V5180l0.2-0.1c0-21.5,17.4-38.9,38.8-38.9h74.7v-88h-407.3v88h72.1 c21.5,0.1,38.8,17.5,38.8,39v0.2v435.1v0.3c0,21.5-17.3,38.8-38.8,38.8h-72.1v100.1h407.3v-100.1h-74.7c-21.5,0-38.8-17.4-38.8-38.8 l-0.2-0.1V5505c0,0,44.2-32.8,106.1-78.3c33.3,36.1,153.6,167.4,163,177.6c10.9,11.8,17.8,49.9-25.7,49.9h-47.7v100.4h440.1v-97.3 C5716.4,5657.2,5707.5,5646.8,5707.5,5646.8 M4228.5,5754.5h544.5v-100.1h-118c-21.4,0-38.8-17.4-38.8-38.8l-0.1-0.1v-435.5 l0.1-127.1h-102.8c0,0,0,105.8-270.1,105.8l1.5,94.1h149.6c21.5,0.1,38.8,17.5,38.8,38.9c0,0.1-0.1,323.4-0.1,323.4 c0,0.1,0.1,0.2,0.1,0.3c0,21.5-17.4,38.8-38.8,38.8h-166V5754.5z M4103.3,5589.9c133.5-245.7-32.8-513.2-330.3-531.6 c-52.5-5.4-141.2-5.5-214,16.2c-150.4,39.4-254.1,162.9-263.1,323c-9,161.1,74.1,291.2,225.8,348.8c127.1,48.1,256.2,48.1,384.2,5.2 C3991.1,5723.1,4059.6,5670.5,4103.3,5589.9 M3946.6,5413c-1.6,156.6-91.2,257-227.1,254.9c-141.5-2.2-226.2-98.2-225.2-255.5 c0.8-151.4,86.7-241.8,229-241C3859.4,5172,3948,5268.1,3946.6,5413 M3195.8,5586l25.8-131.2l-53.8-19.9c0,0-22.6,41.8-41.6,41.8 h-69.6v-423.7h-126.2l-548.3,423.7v109.4h495.4v23.5c0,32.8-15.1,48.3-49.4,48.3h-101.9v97.1h439.6v-97.3h-67.7 c-50.7,0-41.6-45.3-41.6-45.3V5586H3195.8z M2877.5,5476.8h-306.9l306.9-238.7V5476.8z"></path><path class="st1" d="M3199.4,2865.1l332.9,193.6c29.3,17.1,66.2-4.1,66.2-38v-953.7c0-26.9-14.4-51.9-37.6-65.5l-335.3-194.9 c-29.3-17.1-66.2,4.1-66.2,38L3159,2795C3159,2823.9,3174.4,2850.6,3199.4,2865.1"></path><path class="st1" d="M3916.7,2865l333.7,194.1c29.1,17,65.7-4.1,65.7-37.7V1730.7c0-26.8-14.3-51.6-37.4-65.2l-336-195.4 c-29.1-16.9-65.7,4.1-65.7,37.7l-0.3,1287.4C3876.5,2824,3891.8,2850.6,3916.7,2865"></path><path class="st1" d="M4634.9,2865.4l331.4,192.7c29.9,17.4,67.4-4.2,67.4-38.8V1395c0-27.2-14.5-52.5-38-66.2l-333.6-194 c-29.9-17.4-67.4,4.2-67.4,38.7l-0.4,1620.9C4594.2,2823.7,4609.7,2850.7,4634.9,2865.4"></path></svg>