<svg xmlns="http://www.w3.org/2000/svg" id="Layer_2" viewBox="0 0 50.2 50.2"><g id="Layer_1-2"><g id="Group_38"><path id="Path_147" d="M44.3,47.6H5.9c-3.3,0-5.9-2.7-5.9-6h0v-23.6c0-3.3,2.6-5.9,5.9-5.9h38.4c3.3,0,5.9,2.7,5.9,5.9h0v23.6c0,3.3-2.6,5.9-5.9,6h0" fill="#e3530f"></path><path id="Path_148" d="M40.1,10.2h-4.4c0-1.7-1.4-3.2-3.2-3.2h-14.9c-1.7,0-3.1,1.4-3.2,3.2h-4.4c0-4.2,3.4-7.5,7.5-7.5h14.9c4.2,0,7.5,3.4,7.5,7.5"></path><path id="Path_149" d="M25.1,19l-3.5,7.2-7.9,1.1,5.7,5.6-1.4,7.9,7.1-3.7,7.1,3.7-1.4-7.9,5.7-5.6-7.9-1.1s-3.5-7.2-3.5-7.2Z" fill="#fff"></path></g></g></svg>
