<svg xmlns="http://www.w3.org/2000/svg" id="Layer_2" viewBox="0 0 45 45"><g id="Layer_1-2"><g id="Group_42"><path id="Path_150" d="M33,10.7c0,5.9-4.8,10.7-10.7,10.7-5.9,0-10.7-4.8-10.7-10.7S16.4,0,22.3,0h0c5.9,0,10.7,4.8,10.7,10.7h0" fill="#e3530f"></path><path id="Path_151" d="M41.2,19.9c-1.6,9.5-16.5,5.1-14.9,22.6,4.4-2.9,8.2-6.8,10.9-11.4.2-.4.7-.5,1.1-.3.4.2.5.7.3,1.1h0c-2.8,4.7-6.6,8.6-11.1,11.7,9.5,1.8,15.3-3.6,15.3-12.1,0-3.9-.5-7.9-1.7-11.6"></path><path id="Path_152" d="M6.4,32c-.2-.4,0-.9.3-1.1.4-.2.9-.1,1.1.3,2.7,4.6,6.4,8.4,10.9,11.4,1.6-17.4-13.3-13-14.9-22.6-1.2,3.8-1.7,7.7-1.7,11.6,0,8,5.4,14,15.4,12.1-4.5-3-8.3-7-11.1-11.7"></path><path id="Path_153" d="M35.8,9.5c0,.5.4.8.8.8h3.3c.5,0,.8-.4.8-.8s-.4-.8-.8-.8h-3.3c-.5,0-.8.4-.8.8" fill="#b5b5b5"></path><path id="Path_154" d="M34.8,3.2l2.9-1.7c.4-.2.5-.7.3-1.1-.2-.4-.7-.5-1.1-.3h0l-2.9,1.7c-.4.2-.5.7-.3,1.1s.7.5,1.1.3" fill="#b5b5b5"></path><path id="Path_155" d="M6.5,3l2.9,1.7c.4.2.9,0,1.1-.3s0-.9-.3-1.1l-2.9-1.6c-.4-.2-.9,0-1.1.3-.2.4,0,.9.3,1.1h0" fill="#b5b5b5"></path><path id="Path_156" d="M5,12h3.3c.5,0,.8-.4.8-.8s-.4-.8-.8-.8h-3.3c-.5,0-.8.4-.8.8s.4.8.8.8h0" fill="#b5b5b5"></path><path id="Path_157" d="M10.2,17.4l-2.9,1.7c-.4.2-.5.7-.3,1.1.2.4.7.5,1.1.3h0l2.9-1.7c.4-.2.5-.7.3-1.1s-.7-.5-1.1-.3" fill="#b5b5b5"></path><path id="Path_158" d="M35.6,15.9c-.4-.2-.9-.1-1.1.3-.2.4,0,.9.3,1.1h0l2.9,1.7c.4.2.9,0,1.1-.3s0-.9-.3-1.1l-2.9-1.7h0Z" fill="#b5b5b5"></path><path id="Path_159" d="M22.5,18.6c-.5,0-.8-.4-.8-.8h0v-.9c-1.9-.3-3.2-1.8-3.3-3.7,0-.5.4-.8.8-.8s.8.4.8.8c.2,1.4,1.6,2.3,3,2,1-.2,1.9-1,2-2-.1-1.3-1.2-2.2-2.5-2.1-2.2.1-4-1.6-4.2-3.7,0-1.9,1.5-3.4,3.3-3.7v-.9c0-.5.4-.8.8-.8s.8.4.8.8v.9c1.9.3,3.2,1.8,3.3,3.7,0,.5-.4.8-.8.8s-.8-.4-.8-.8h0c-.2-1.4-1.6-2.3-3-2-1,.2-1.9,1-2,2,.1,1.3,1.2,2.2,2.5,2.1,2.2-.1,4,1.6,4.2,3.7,0,1.9-1.5,3.4-3.3,3.7v.9c0,.5-.4.8-.8.8h0" fill="#fff"></path><path id="Path_160" d="M22.5,45h0c-.5,0-.8-.4-.8-.8h0v-21.2h1.6v21.2c0,.5-.4.8-.8.8h0" fill="#b5b5b5"></path></g></g></svg>
