<svg xmlns="http://www.w3.org/2000/svg" id="Layer_2" viewBox="0 0 83.8 83.8"><g id="Layer_1-2"><g id="Group_70"><path id="Path_72" d="M23.5,52h0c3.5,0,6.3-2.8,6.3-6.3s-2.8-6.3-6.3-6.3h0c-3.5,0-6.3,2.8-6.3,6.3s2.8,6.3,6.3,6.3"></path><path id="Path_73" d="M32.6,55.4c.4.6.3,1.4-.2,1.8,0,0,0,0,0,0h0c-.2.2-.5.4-.7.6-2.1,1.8-3.4,4.4-3.4,7.2v4.4c0,.5-.4.9-.9.9-.1,0-.3,0-.4-.1l-11.5-6.6s0,0-.1,0h0c0,0-.1-.1-.2-.2-1.1-.8-1.7-2.1-1.7-3.5v-.9c0-.2,0-.5,0-.7,0-.2,0-.3,0-.4.5-2.8,2.9-4.7,5.7-4.7h8.9c1.8,0,3.5.8,4.6,2.2"></path><path id="Path_74" d="M60.3,52h0c3.5,0,6.3-2.8,6.3-6.3s-2.8-6.3-6.3-6.3h0c-3.5,0-6.3,2.8-6.3,6.3s2.8,6.3,6.3,6.3"></path><path id="Path_75" d="M70.5,59v.9c0,1.4-.6,2.6-1.7,3.5,0,0-.1,0-.2.1,0,0-.1,0-.2.1l-11.5,6.6c-.4.2-1,0-1.2-.3,0-.1-.1-.3-.1-.4v-4.4c0-2.8-1.2-5.4-3.3-7.2-.2-.2-.5-.4-.7-.5h0c-.6-.4-.8-1.2-.3-1.8,0,0,0,0,0,0,1.1-1.4,2.8-2.3,4.6-2.3h8.9c2.8,0,5.2,2,5.7,4.7,0,.2,0,.3,0,.4,0,.2,0,.5,0,.7"></path><path id="Path_76" d="M52.2,65v6.9c0,.7-.3,1.2-.9,1.6l-1.2.7-6,3.4c-1.4.8-3.1.8-4.5,0l-6-3.4-.7-.4h0s-.4-.3-.4-.3c-.6-.3-.9-.9-.9-1.6v-6.9c0-1.7.8-3.4,2.1-4.5.1-.1.3-.2.5-.3,1-.7,2.1-1,3.3-1h8.8c1.2,0,2.3.3,3.3,1,.2.1.3.2.5.3,1.3,1.1,2.1,2.8,2.1,4.5"></path><path id="Path_77" d="M41.9,58.1c3.5,0,6.3-2.8,6.3-6.3s-2.8-6.3-6.3-6.3-6.3,2.8-6.3,6.3,2.8,6.3,6.3,6.3h0"></path><path id="Path_78" d="M76.2,31.8v28c0,3.6-1.9,6.9-5,8.7h0l-1.3.8-1.3.8-16,9.3h0l-.5.3h0c0,0-2,1.2-2,1.2h0l-3,1.7c-3.1,1.8-6.9,1.8-10,0l-3-1.7h0l-2.1-1.2h0s-.5-.3-.5-.3h0l-16-9.3-2.6-1.5h0c-3.1-1.8-5-5.1-5-8.7v-28c0-3.6,1.9-6.9,5-8.7l10.4-6c.2-.1.4-.2.6-.2.6,0,1.1.4,1.2.9h0c.2.6,0,1.2-.6,1.5l-10.4,6c-2.3,1.3-3.7,3.8-3.7,6.4v28c0,2.1.9,4,2.4,5.5.3.3.7.6,1,.8,0,0,.2.1.3.2l1.3.7,16,9.3h.2c0,.1,0,.1,0,.1l2.3,1.3h0l4.3,2.5c2.3,1.3,5.1,1.3,7.4,0l4.3-2.5h0l2.3-1.3h0s.2-.2.2-.2h0l16-9.3,1.3-.7c0,0,.2-.1.3-.2.4-.2.7-.5,1-.8,1.5-1.4,2.4-3.4,2.4-5.5v-28c0-2.6-1.4-5.1-3.7-6.4l-10.4-6c-.5-.3-.8-.9-.6-1.5h0c.2-.7.9-1.1,1.6-.9,0,0,.2,0,.3.1l10.4,6c3.1,1.8,5,5.1,5,8.7" fill="#b5b5b5"></path><g id="Group_22"><path id="Path_87" d="M38.3,15l-2.8,3.2v1.2h5.8v-1.5h-3.6l1.6-1.8c.9-.8,1.4-1.9,1.6-3,0-.7-.2-1.3-.8-1.8-.5-.5-1.2-.7-2-.7-.8,0-1.5.2-2.1.8-.5.5-.8,1.3-.8,2v.3h1.6v-.3c0-.4,0-.7.3-1,.3-.2.6-.4,1-.3.3,0,.6,0,.8.3.2.2.3.5.3.8,0,.3,0,.5-.2.8-.2.4-.5.7-.8,1.1" fill="#e3530f"></path><path id="Path_88" d="M47.3,19.3v-1.9h1.1v-1.5h-1.1v-5.3h-1.6l-3.7,5.8v1h3.6v1.9h1.6ZM44.1,16l1.6-2.5v2.5h-1.6Z" fill="#e3530f"></path><path id="Path_89" d="M53.7,14.9c0,1.1-.1,2.1-.4,3.1-1.7,6.3-8.2,10-14.5,8.3-6.3-1.7-10-8.2-8.3-14.5,1.7-6.3,8.2-10,14.5-8.3.3,0,.6.2.9.3.8.3,1.5.7,2.2,1.1l-1.3,2,4.1.5,3.3.4-1-2.4h0l-2.1-5.1-1.4,2c-.7-.5-1.4-.8-2.2-1.2h0c-7.6-3.2-16.4.4-19.6,8-3.2,7.6.4,16.4,7.9,19.6,7.6,3.2,16.4-.4,19.6-7.9.4-.9.7-1.8.8-2.7.2-1,.3-2.1.3-3.1h-3.1Z" fill="#e3530f"></path></g></g></g></svg>
