<svg xmlns="http://www.w3.org/2000/svg" id="Layer_2" viewBox="0 0 60.6 60.6"><g id="Layer_1-2"><g id="Group_36"><path id="Path_141" d="M51,19.9c-.8-7.4-7.4-12.8-14.8-12.1-4.4.4-8.2,3-10.4,6.8-.9-.2-1.8-.3-2.8-.3-4.1,0-7.8,2.2-9.7,5.8-.8-.2-1.6-.3-2.5-.3-5.9-.1-10.8,4.6-10.9,10.5-.1,5.8,4.3,10.6,10.1,10.9.1,0,.3,0,.4,0h7.5v-1.9h-7.5c0,0-.1,0-.2,0h-.1c-4.9-.3-8.5-4.6-8.2-9.4.3-4.7,4.2-8.3,8.9-8.2.7,0,1.4,0,2,.2l1.5.3.7-1.3c1.6-3,4.6-4.8,8-4.8.8,0,1.5.1,2.3.3l1.5.4.7-1.3c3.1-5.6,10.2-7.5,15.8-4.4,3.3,1.8,5.4,5.2,5.8,8.9v1.5c.1,0,1.7.2,1.7.2,4.8.5,8.4,4.9,7.8,9.7-.5,4.2-3.8,7.5-8.1,7.9h-.1c0,0-.2,0-.2,0h-3.3v1.9h3.3c.2,0,.4,0,.6,0,5.9-.5,10.3-5.6,9.8-11.5-.4-5.1-4.4-9.2-9.5-9.8"></path><path id="Path_144" d="M35.9,29.8h2.2v12l4,3v8h8v-8l-8-3v-12h2l-4.1-6.4-4.1,6.4h0Z" fill="#b5b5b5"></path><path id="Path_145" d="M32.5,18.4l-4.1,6.4h2v20h-1.9v8h8v-8h-2.1v-20h2.2l-4.1-6.4h0Z" fill="#e3530f"></path><path id="Path_146" d="M20.8,29.8h2v12l-8,3v8h8v-8l4-3v-12h2.2l-4.1-6.4-4.1,6.4h0Z" fill="#b5b5b5"></path></g></g></svg>
